<?xml version="1.0" encoding="UTF-8" standalone="no"?>
<svg
    xmlns="http://www.w3.org/2000/svg"
    version="1.1"
    viewBox="0 0 79 22"
    height="22px"
    width="79px">
    <title>Arbify</title>
    <path
        fill="white"
        d="m 3.4,14.18 c 0.504,0 0.906,-0.156 1.206,-0.468 0.3,-0.312 0.45,-0.72 0.45,-1.224 0,-0.504 -0.15,-0.909 -0.45,-1.215 -0.3,-0.306 -0.702,-0.459 -1.206,-0.459 -0.504,0 -0.906,0.153 -1.206,0.459 -0.3,0.306 -0.45,0.711 -0.45,1.215 0,0.504 0.15,0.912 0.45,1.224 0.3,0.312 0.702,0.468 1.206,0.468 z M 12.428,14 13.256,10.562 h 3.87 L 17.954,14 h 2.052 L 16.604,1.04 h -2.7 L 10.394,14 Z M 16.73,8.978 h -3.078 l 1.17,-4.86 c 0.06,-0.228 0.111,-0.447 0.153,-0.657 0.042,-0.21 0.075,-0.399 0.099,-0.567 0.036,-0.192 0.066,-0.372 0.09,-0.54 v 0 h 0.09 c 0.024,0.168 0.048,0.348 0.072,0.54 0.024,0.168 0.054,0.357 0.09,0.567 0.036,0.21 0.084,0.429 0.144,0.657 v 0 z M 25.416,14 V 7.826 c 0,-0.684 0.186,-1.224 0.558,-1.62 0.372,-0.396 0.876,-0.594 1.512,-0.594 0.648,0 1.158,0.195 1.53,0.585 0.372,0.39 0.558,0.933 0.558,1.629 v 0 0.45 h 2.034 V 7.628 c 0,-1.164 -0.3,-2.073 -0.9,-2.727 C 30.108,4.247 29.28,3.92 28.224,3.92 27.492,3.92 26.883,4.085 26.397,4.415 25.911,4.745 25.602,5.21 25.47,5.81 v 0 H 25.308 V 4.1 H 23.436 V 14 Z m 14.158,0.18 c 0.504,0 0.966,-0.09 1.386,-0.27 0.42,-0.18 0.777,-0.438 1.071,-0.774 0.294,-0.336 0.522,-0.747 0.684,-1.233 0.162,-0.486 0.243,-1.029 0.243,-1.629 v 0 -2.484 c 0,-0.6 -0.081,-1.137 -0.243,-1.611 C 42.553,5.705 42.325,5.3 42.031,4.964 41.737,4.628 41.38,4.37 40.96,4.19 40.54,4.01 40.078,3.92 39.574,3.92 c -0.72,0 -1.317,0.165 -1.791,0.495 -0.474,0.33 -0.777,0.795 -0.909,1.395 v 0 H 36.73 C 36.742,5.594 36.76,5.378 36.784,5.162 36.796,4.97 36.805,4.766 36.811,4.55 36.817,4.334 36.82,4.142 36.82,3.974 v 0 V 1.04 H 34.84 V 14 h 1.89 v -1.71 h 0.144 c 0.132,0.6 0.435,1.065 0.909,1.395 0.474,0.33 1.071,0.495 1.791,0.495 z m -0.72,-1.728 c -0.624,0 -1.119,-0.198 -1.485,-0.594 -0.366,-0.396 -0.549,-0.924 -0.549,-1.584 v 0 -2.448 c 0,-0.672 0.186,-1.206 0.558,-1.602 0.372,-0.396 0.864,-0.594 1.476,-0.594 0.66,0 1.179,0.195 1.557,0.585 0.378,0.39 0.567,0.927 0.567,1.611 v 0 2.43 c 0,0.672 -0.189,1.206 -0.567,1.602 -0.378,0.396 -0.897,0.594 -1.557,0.594 z m 12.43,-9.936 c 0.384,0 0.687,-0.102 0.909,-0.306 0.222,-0.204 0.333,-0.48 0.333,-0.828 0,-0.348 -0.111,-0.627 -0.333,-0.837 C 51.971,0.335 51.674,0.23 51.302,0.23 v 0 H 50.87 c -0.372,0 -0.669,0.105 -0.891,0.315 -0.222,0.21 -0.333,0.489 -0.333,0.837 0,0.348 0.111,0.624 0.333,0.828 0.222,0.204 0.519,0.306 0.891,0.306 v 0 z M 55.19,14 V 12.2 H 52.292 V 4.1 h -5.04 v 1.782 h 3.114 V 12.2 H 46.802 V 14 Z m 7.606,0 V 6.944 h 3.906 v -1.8 H 62.796 V 3.758 c 0,-0.312 0.09,-0.549 0.27,-0.711 0.18,-0.162 0.432,-0.243 0.756,-0.243 v 0 h 2.88 V 1.04 h -2.898 c -0.924,0 -1.653,0.243 -2.187,0.729 -0.534,0.486 -0.801,1.143 -0.801,1.971 v 0 1.404 h -2.808 v 1.8 h 2.808 V 14 Z M 74.092,17.06 78.844,4.1 h -2.088 l -1.944,5.454 c -0.084,0.24 -0.153,0.48 -0.207,0.72 -0.054,0.24 -0.099,0.456 -0.135,0.648 -0.036,0.228 -0.06,0.444 -0.072,0.648 v 0 H 74.254 C 74.23,11.366 74.2,11.15 74.164,10.922 74.128,10.718 74.083,10.499 74.029,10.265 73.975,10.031 73.9,9.794 73.804,9.554 v 0 L 71.716,4.1 h -2.16 l 3.816,9.27 -1.368,3.69 z"/>
    <line
        stroke="white"
        stroke-width="2"
        stroke-linecap="square"
        y2="21"
        x2="43"
        y1="21"
        x1="1"/>
</svg>
