<?xml version="1.0" encoding="UTF-8"?>
<svg width="79px" height="22px" viewBox="0 0 79 22" version="1.1" xmlns="http://www.w3.org/2000/svg" xmlns:xlink="http://www.w3.org/1999/xlink">
    <title>arbify_log_outline</title>
    <g id="Arbify" stroke="none" stroke-width="1" fill="none" fill-rule="evenodd">
        <g id="Artboard" transform="translate(-161.000000, -266.000000)">
            <g id="arbify_log_outline" transform="translate(159.000000, 263.000000)">
                <g id="arbify_logo">
                    <path d="M5.4,17.18 C5.904,17.18 6.306,17.024 6.606,16.712 C6.906,16.4 7.056,15.992 7.056,15.488 C7.056,14.984 6.906,14.579 6.606,14.273 C6.306,13.967 5.904,13.814 5.4,13.814 C4.896,13.814 4.494,13.967 4.194,14.273 C3.894,14.579 3.744,14.984 3.744,15.488 C3.744,15.992 3.894,16.4 4.194,16.712 C4.494,17.024 4.896,17.18 5.4,17.18 Z M14.428,17 L15.256,13.562 L19.126,13.562 L19.954,17 L22.006,17 L18.604,4.04 L15.904,4.04 L12.394,17 L14.428,17 Z M18.73,11.978 L15.652,11.978 L16.822,7.118 C16.882,6.89 16.933,6.671 16.975,6.461 C17.017,6.251 17.05,6.062 17.074,5.894 C17.11,5.702 17.14,5.522 17.164,5.354 L17.164,5.354 L17.254,5.354 C17.278,5.522 17.302,5.702 17.326,5.894 C17.35,6.062 17.38,6.251 17.416,6.461 C17.452,6.671 17.5,6.89 17.56,7.118 L17.56,7.118 L18.73,11.978 Z M27.416,17 L27.416,10.826 C27.416,10.142 27.602,9.602 27.974,9.206 C28.346,8.81 28.85,8.612 29.486,8.612 C30.134,8.612 30.644,8.807 31.016,9.197 C31.388,9.587 31.574,10.13 31.574,10.826 L31.574,10.826 L31.574,11.276 L33.608,11.276 L33.608,10.628 C33.608,9.464 33.308,8.555 32.708,7.901 C32.108,7.247 31.28,6.92 30.224,6.92 C29.492,6.92 28.883,7.085 28.397,7.415 C27.911,7.745 27.602,8.21 27.47,8.81 L27.47,8.81 L27.308,8.81 L27.308,7.1 L25.436,7.1 L25.436,17 L27.416,17 Z M41.574,17.18 C42.078,17.18 42.54,17.09 42.96,16.91 C43.38,16.73 43.737,16.472 44.031,16.136 C44.325,15.8 44.553,15.389 44.715,14.903 C44.877,14.417 44.958,13.874 44.958,13.274 L44.958,13.274 L44.958,10.79 C44.958,10.19 44.877,9.653 44.715,9.179 C44.553,8.705 44.325,8.3 44.031,7.964 C43.737,7.628 43.38,7.37 42.96,7.19 C42.54,7.01 42.078,6.92 41.574,6.92 C40.854,6.92 40.257,7.085 39.783,7.415 C39.309,7.745 39.006,8.21 38.874,8.81 L38.874,8.81 L38.73,8.81 C38.742,8.594 38.76,8.378 38.784,8.162 C38.796,7.97 38.805,7.766 38.811,7.55 C38.817,7.334 38.82,7.142 38.82,6.974 L38.82,6.974 L38.82,4.04 L36.84,4.04 L36.84,17 L38.73,17 L38.73,15.29 L38.874,15.29 C39.006,15.89 39.309,16.355 39.783,16.685 C40.257,17.015 40.854,17.18 41.574,17.18 Z M40.854,15.452 C40.23,15.452 39.735,15.254 39.369,14.858 C39.003,14.462 38.82,13.934 38.82,13.274 L38.82,13.274 L38.82,10.826 C38.82,10.154 39.006,9.62 39.378,9.224 C39.75,8.828 40.242,8.63 40.854,8.63 C41.514,8.63 42.033,8.825 42.411,9.215 C42.789,9.605 42.978,10.142 42.978,10.826 L42.978,10.826 L42.978,13.256 C42.978,13.928 42.789,14.462 42.411,14.858 C42.033,15.254 41.514,15.452 40.854,15.452 Z M53.284,5.516 C53.668,5.516 53.971,5.414 54.193,5.21 C54.415,5.006 54.526,4.73 54.526,4.382 C54.526,4.034 54.415,3.755 54.193,3.545 C53.971,3.335 53.674,3.23 53.302,3.23 L53.302,3.23 L52.87,3.23 C52.498,3.23 52.201,3.335 51.979,3.545 C51.757,3.755 51.646,4.034 51.646,4.382 C51.646,4.73 51.757,5.006 51.979,5.21 C52.201,5.414 52.498,5.516 52.87,5.516 L52.87,5.516 L53.284,5.516 Z M57.19,17 L57.19,15.2 L54.292,15.2 L54.292,7.1 L49.252,7.1 L49.252,8.882 L52.366,8.882 L52.366,15.2 L48.802,15.2 L48.802,17 L57.19,17 Z M64.796,17 L64.796,9.944 L68.702,9.944 L68.702,8.144 L64.796,8.144 L64.796,6.758 C64.796,6.446 64.886,6.209 65.066,6.047 C65.246,5.885 65.498,5.804 65.822,5.804 L65.822,5.804 L68.702,5.804 L68.702,4.04 L65.804,4.04 C64.88,4.04 64.151,4.283 63.617,4.769 C63.083,5.255 62.816,5.912 62.816,6.74 L62.816,6.74 L62.816,8.144 L60.008,8.144 L60.008,9.944 L62.816,9.944 L62.816,17 L64.796,17 Z M76.092,20.06 L80.844,7.1 L78.756,7.1 L76.812,12.554 C76.728,12.794 76.659,13.034 76.605,13.274 C76.551,13.514 76.506,13.73 76.47,13.922 C76.434,14.15 76.41,14.366 76.398,14.57 L76.398,14.57 L76.254,14.57 C76.23,14.366 76.2,14.15 76.164,13.922 C76.128,13.718 76.083,13.499 76.029,13.265 C75.975,13.031 75.9,12.794 75.804,12.554 L75.804,12.554 L73.716,7.1 L71.556,7.1 L75.372,16.37 L74.004,20.06 L76.092,20.06 Z" id=".Arbify" fill="#000000" fill-rule="nonzero"></path>
                    <line x1="3" y1="24" x2="45" y2="24" id="Line" stroke="#000000" stroke-width="2" stroke-linecap="square"></line>
                </g>
            </g>
        </g>
    </g>
</svg>