<?xml version="1.0" encoding="UTF-8"?>
<svg
    xmlns="http://www.w3.org/2000/svg"
    width="291.05115"
    height="291.05115"
    viewBox="0 0 77.007284 77.007284"
    version="1.1">
    <path
        fill="currentColor"
        d="m 6.8358325,42.732244 c 0.868338,0 1.56094,-0.26832 2.077808,-0.80496 0.516867,-0.53664 0.775301,-1.2384 0.775301,-2.10528 0,-0.86688 -0.258434,-1.56348 -0.775301,-2.0898 -0.516868,-0.52632 -1.20947,-0.78948 -2.077808,-0.78948 -0.868337,0 -1.560939,0.26316 -2.077807,0.78948 -0.516867,0.52632 -0.7753011,1.22292 -0.7753011,2.0898 0,0.86688 0.2584341,1.56864 0.7753011,2.10528 0.516868,0.53664 1.20947,0.80496 2.077807,0.80496 z m 15.5542645,-0.3096 1.426555,-5.91336 h 6.66759 l 1.426554,5.91336 h 3.535374 l -5.861277,-22.2912 h -4.651808 l -6.047349,22.2912 z m 7.41188,-8.63784 h -5.30306 l 2.015783,-8.3592 c 0.103373,-0.39216 0.191241,-0.76884 0.263602,-1.13004 0.07236,-0.3612 0.129217,-0.68628 0.170567,-0.97524 0.06202,-0.33024 0.11371,-0.63984 0.15506,-0.9288 v 0 h 0.15506 c 0.04135,0.28896 0.0827,0.59856 0.124048,0.9288 0.04135,0.28896 0.09304,0.61404 0.15506,0.97524 0.06202,0.3612 0.144723,0.73788 0.248097,1.13004 v 0 z m 14.965036,8.63784 v -10.61928 c 0,-1.17648 0.320458,-2.10528 0.961374,-2.7864 0.640915,-0.68112 1.509253,-1.02168 2.605012,-1.02168 1.116433,0 1.995108,0.3354 2.636024,1.0062 0.640915,0.6708 0.961373,1.60476 0.961373,2.80188 v 0 0.774 h 3.504362 v -1.11456 c 0,-2.00208 -0.516868,-3.56556 -1.550603,-4.69044 -1.033735,-1.12488 -2.460289,-1.68732 -4.279662,-1.68732 -1.261157,0 -2.310398,0.2838 -3.147723,0.8514 -0.837326,0.5676 -1.369699,1.3674 -1.597121,2.3994 v 0 h -0.279108 v -2.9412 h -3.225253 v 17.028 z m 24.392699,0.3096 c 0.868337,0 1.664313,-0.1548 2.387928,-0.4644 0.723614,-0.3096 1.338686,-0.75336 1.845217,-1.33128 0.50653,-0.57792 0.899349,-1.28484 1.178457,-2.12076 0.279109,-0.83592 0.418663,-1.76988 0.418663,-2.80188 v 0 -4.27248 c 0,-1.032 -0.139554,-1.95564 -0.418663,-2.77092 -0.279108,-0.81528 -0.671927,-1.51188 -1.178457,-2.0898 -0.506531,-0.57792 -1.121603,-1.02168 -1.845217,-1.33128 -0.723615,-0.3096 -1.519591,-0.4644 -2.387928,-0.4644 -1.240482,0 -2.269048,0.2838 -3.085699,0.8514 -0.81665,0.5676 -1.338687,1.3674 -1.566108,2.3994 v 0 h -0.248097 c 0.02067,-0.37152 0.05169,-0.74304 0.09304,-1.11456 0.02067,-0.33024 0.03618,-0.68112 0.04652,-1.05264 0.01034,-0.37152 0.01551,-0.70176 0.01551,-0.99072 v 0 -5.04648 h -3.411335 v 22.2912 h 3.256265 v -2.9412 h 0.248097 c 0.227421,1.032 0.749458,1.8318 1.566108,2.3994 0.816651,0.5676 1.845217,0.8514 3.085699,0.8514 z m -1.240482,-2.97216 c -1.075084,0 -1.927916,-0.34056 -2.558494,-1.02168 -0.630578,-0.68112 -0.945867,-1.58928 -0.945867,-2.72448 v 0 -4.21056 c 0,-1.15584 0.320457,-2.07432 0.961373,-2.75544 0.640916,-0.68112 1.488578,-1.02168 2.542988,-1.02168 1.137108,0 2.031289,0.3354 2.682542,1.0062 0.651253,0.6708 0.97688,1.59444 0.97688,2.77092 v 0 4.1796 c 0,1.15584 -0.325627,2.07432 -0.97688,2.75544 -0.651253,0.68112 -1.545434,1.02168 -2.682542,1.02168 z" />
    <line
        stroke="currentColor"
        stroke-width="2"
        stroke-linecap="square"
        y2="54.462639"
        x2="75.06234"
        y1="54.462639"
        x1="2.7008929" />
</svg>
