<?xml version="1.0" encoding="iso-8859-1"?>
<!-- Generator: Adobe Illustrator 19.0.0, SVG Export Plug-In . SVG Version: 6.00 Build 0)  -->
<svg xmlns="http://www.w3.org/2000/svg" xmlns:xlink="http://www.w3.org/1999/xlink" version="1.1" id="Capa_1" x="0px" y="0px" viewBox="0 0 512 512" style="enable-background:new 0 0 512 512;" xml:space="preserve">
<rect y="85.331" style="fill:#D80027;" width="512" height="341.337"/>
<g>
	<rect y="161.174" style="fill:#FFDA44;" width="512" height="37.921"/>
	<rect y="237.028" style="fill:#FFDA44;" width="512" height="37.921"/>
	<rect y="312.882" style="fill:#FFDA44;" width="512" height="37.921"/>
	<rect y="388.736" style="fill:#FFDA44;" width="512" height="37.921"/>
	<rect y="85.331" style="fill:#FFDA44;" width="512" height="37.921"/>
</g>
<rect y="85.331" style="fill:#4A1F63;" width="256" height="170.663"/>
<polygon style="fill:#F0F0F0;" points="172.522,155.819 172.522,170.66 165.101,170.66 165.101,155.819 150.261,155.819   150.261,170.66 142.84,170.66 142.84,140.978 113.16,140.978 113.16,170.66 105.739,170.66 105.739,155.819 90.899,155.819   90.899,170.66 83.478,170.66 83.478,155.819 68.638,155.819 68.638,200.341 187.362,200.341 187.362,155.819 "/>
<g>
</g>
<g>
</g>
<g>
</g>
<g>
</g>
<g>
</g>
<g>
</g>
<g>
</g>
<g>
</g>
<g>
</g>
<g>
</g>
<g>
</g>
<g>
</g>
<g>
</g>
<g>
</g>
<g>
</g>
</svg>
