<?xml version="1.0" encoding="iso-8859-1"?>
<!-- Generator: Adobe Illustrator 19.0.0, SVG Export Plug-In . SVG Version: 6.00 Build 0)  -->
<svg xmlns="http://www.w3.org/2000/svg" xmlns:xlink="http://www.w3.org/1999/xlink" version="1.1" id="Capa_1" x="0px" y="0px" viewBox="0 0 509.85 509.85" style="enable-background:new 0 0 509.85 509.85;" xml:space="preserve">
<g>
	<rect x="0" y="84.975" style="fill:#F0F0F0;" width="509.85" height="339.904"/>
	<rect x="0" y="84.975" style="fill:#F0F0F0;" width="509.85" height="169.946"/>
</g>
<rect x="0" y="154.015" style="fill:#D80027;" width="509.85" height="31.866"/>
<g>
	<polygon style="fill:#0052B4;" points="379.051,199.5 509.85,232.199 509.85,199.5  "/>
	<polygon style="fill:#0052B4;" points="288.176,199.5 509.85,254.918 509.85,239.246 350.861,199.5  "/>
	<polygon style="fill:#0052B4;" points="450.804,254.918 288.176,214.257 288.176,254.918  "/>
</g>
<polygon style="fill:#F0F0F0;" points="288.176,199.5 509.85,254.918 509.85,239.246 350.861,199.5 "/>
<polygon style="fill:#D80027;" points="288.176,199.5 509.85,254.918 509.85,239.246 350.861,199.5 "/>
<g>
	<polygon style="fill:#0052B4;" points="99.957,199.499 0,224.487 0,199.499  "/>
	<polygon style="fill:#0052B4;" points="221.674,206.546 221.674,254.917 28.205,254.917  "/>
</g>
<polygon style="fill:#D80027;" points="158.988,199.5 0,239.246 0,254.918 0,254.918 221.674,199.5 "/>
<g>
	<polygon style="fill:#0052B4;" points="130.799,140.389 0,107.69 0,140.389  "/>
	<polygon style="fill:#0052B4;" points="221.674,140.389 0,84.971 0,100.642 158.989,140.389  "/>
	<polygon style="fill:#0052B4;" points="59.046,84.971 221.674,125.631 221.674,84.971  "/>
</g>
<polygon style="fill:#F0F0F0;" points="221.674,140.389 0,84.971 0,100.642 158.989,140.389 "/>
<polygon style="fill:#D80027;" points="221.674,140.389 0,84.971 0,100.642 158.989,140.389 "/>
<g>
	<polygon style="fill:#0052B4;" points="409.893,140.39 509.85,115.401 509.85,140.39  "/>
	<polygon style="fill:#0052B4;" points="288.176,133.342 288.176,84.973 481.645,84.973  "/>
</g>
<g>
	<polygon style="fill:#D80027;" points="350.862,140.389 509.85,100.643 509.85,84.971 509.85,84.971 288.176,140.389  "/>
	<rect x="238.998" y="84.975" style="fill:#D80027;" width="31.855" height="169.946"/>
</g>
<g>
	<path style="fill:#0052B4;" d="M509.85,270.693v22.234c-4.411,0.743-12.802,5.497-19.053,9.055   c-10.906,6.196-21.214,12.048-31.068,12.048c-9.864,0-20.161-5.852-31.079-12.048c-6.805-3.868-16.127-9.155-20.128-9.155   c-4.001,0-13.323,5.287-20.128,9.155c-10.906,6.196-21.214,12.048-31.068,12.048s-20.161-5.852-31.079-12.048   c-6.805-3.868-16.127-9.155-20.128-9.155c-3.99,0-13.312,5.287-20.117,9.155c-10.917,6.196-21.225,12.048-31.079,12.048   s-20.161-5.852-31.079-12.048c-6.805-3.868-16.127-9.155-20.117-9.155c-4.001,0-13.323,5.287-20.128,9.155   c-10.917,6.196-21.225,12.048-31.079,12.048c-9.853,0-20.161-5.852-31.068-12.048c-6.805-3.868-16.127-9.155-20.128-9.155   s-13.323,5.287-20.128,9.155c-10.917,6.196-21.214,12.048-31.079,12.048c-9.853,0-20.161-5.852-31.068-12.048   C12.802,298.425,4.411,293.67,0,292.927v-22.234c9.521,0.388,19.485,6.041,30.004,12.015c6.805,3.857,16.127,9.155,20.117,9.155   c4.001,0,13.323-5.298,20.128-9.155c10.917-6.196,21.225-12.048,31.079-12.048s20.161,5.852,31.068,12.048   c6.805,3.857,16.127,9.155,20.128,9.155c4.001,0,13.323-5.298,20.128-9.155c10.917-6.196,21.214-12.048,31.079-12.048   c9.853,0,20.161,5.852,31.068,12.048c6.805,3.857,16.127,9.155,20.128,9.155s13.323-5.298,20.128-9.155   c10.906-6.196,21.214-12.048,31.068-12.048c9.864,0,20.161,5.852,31.079,12.048c6.805,3.857,16.127,9.155,20.128,9.155   s13.323-5.298,20.128-9.155c10.906-6.196,21.214-12.048,31.068-12.048c9.853,0,20.161,5.852,31.079,12.048   c6.805,3.857,16.127,9.155,20.128,9.155c3.99,0,13.312-5.298,20.117-9.155C490.365,276.734,500.329,271.081,509.85,270.693z"/>
	<path style="fill:#0052B4;" d="M509.85,326.112v22.234c-4.411,0.743-12.802,5.497-19.053,9.055   c-10.906,6.196-21.214,12.048-31.068,12.048c-9.864,0-20.161-5.852-31.079-12.048c-6.805-3.868-16.127-9.155-20.128-9.155   c-4.001,0-13.323,5.287-20.128,9.155c-10.906,6.196-21.214,12.048-31.068,12.048s-20.161-5.852-31.079-12.048   c-6.805-3.868-16.127-9.155-20.128-9.155c-3.99,0-13.312,5.287-20.117,9.155c-10.917,6.196-21.225,12.048-31.079,12.048   s-20.161-5.852-31.079-12.048c-6.805-3.868-16.127-9.155-20.117-9.155c-4.001,0-13.323,5.287-20.128,9.155   c-10.917,6.196-21.225,12.048-31.079,12.048c-9.853,0-20.161-5.852-31.068-12.048c-6.805-3.868-16.127-9.155-20.128-9.155   s-13.323,5.287-20.128,9.155c-10.917,6.196-21.214,12.048-31.079,12.048c-9.853,0-20.161-5.852-31.068-12.048   c-6.251-3.558-14.642-8.313-19.053-9.055v-22.234c9.521,0.388,19.485,6.041,30.004,12.015c6.805,3.857,16.127,9.155,20.117,9.155   c4.001,0,13.323-5.298,20.128-9.155c10.917-6.196,21.225-12.048,31.079-12.048s20.161,5.852,31.068,12.048   c6.805,3.857,16.127,9.155,20.128,9.155c4.001,0,13.323-5.298,20.128-9.155c10.917-6.196,21.214-12.048,31.079-12.048   c9.853,0,20.161,5.852,31.068,12.048c6.805,3.857,16.127,9.155,20.128,9.155s13.323-5.298,20.128-9.155   c10.906-6.196,21.214-12.048,31.068-12.048c9.864,0,20.161,5.852,31.079,12.048c6.805,3.857,16.127,9.155,20.128,9.155   s13.323-5.298,20.128-9.155c10.906-6.196,21.214-12.048,31.068-12.048c9.853,0,20.161,5.852,31.079,12.048   c6.805,3.857,16.127,9.155,20.128,9.155c3.99,0,13.312-5.298,20.117-9.155C490.365,332.152,500.329,326.499,509.85,326.112z"/>
	<path style="fill:#0052B4;" d="M509.85,381.53v22.234c-4.411,0.743-12.802,5.497-19.053,9.055   c-10.906,6.196-21.214,12.048-31.068,12.048c-9.864,0-20.161-5.852-31.079-12.048c-6.805-3.868-16.127-9.155-20.128-9.155   c-4.001,0-13.323,5.287-20.128,9.155c-10.906,6.196-21.214,12.048-31.068,12.048s-20.161-5.852-31.079-12.048   c-6.805-3.868-16.127-9.155-20.128-9.155c-3.99,0-13.312,5.287-20.117,9.155c-10.917,6.196-21.225,12.048-31.079,12.048   s-20.161-5.852-31.079-12.048c-6.805-3.868-16.127-9.155-20.117-9.155c-4.001,0-13.323,5.287-20.128,9.155   c-10.917,6.196-21.225,12.048-31.079,12.048c-9.853,0-20.161-5.852-31.068-12.048c-6.805-3.868-16.127-9.155-20.128-9.155   s-13.323,5.287-20.128,9.155c-10.917,6.196-21.214,12.048-31.079,12.048c-9.853,0-20.161-5.852-31.068-12.048   c-6.251-3.558-14.642-8.313-19.053-9.055V381.53c9.521,0.388,19.485,6.041,30.004,12.015c6.805,3.857,16.127,9.155,20.117,9.155   c4.001,0,13.323-5.298,20.128-9.155c10.917-6.196,21.225-12.048,31.079-12.048s20.161,5.852,31.068,12.048   c6.805,3.857,16.127,9.155,20.128,9.155c4.001,0,13.323-5.298,20.128-9.155c10.917-6.196,21.214-12.048,31.079-12.048   c9.853,0,20.161,5.852,31.068,12.048c6.805,3.857,16.127,9.155,20.128,9.155s13.323-5.298,20.128-9.155   c10.906-6.196,21.214-12.048,31.068-12.048c9.864,0,20.161,5.852,31.079,12.048c6.805,3.857,16.127,9.155,20.128,9.155   s13.323-5.298,20.128-9.155c10.906-6.196,21.214-12.048,31.068-12.048c9.853,0,20.161,5.852,31.079,12.048   c6.805,3.857,16.127,9.155,20.128,9.155c3.99,0,13.312-5.298,20.117-9.155C490.365,387.571,500.329,381.918,509.85,381.53z"/>
</g>
<polygon style="fill:#FFDA44;" points="306.463,388.055 325.423,353.57 286.756,360.965 281.857,321.905 254.925,350.633   227.994,321.905 223.093,360.965 184.428,353.57 203.389,388.054 167.781,404.804 203.388,421.551 201.564,424.871 308.285,424.871   306.461,421.552 342.069,404.804 "/>
<g>
</g>
<g>
</g>
<g>
</g>
<g>
</g>
<g>
</g>
<g>
</g>
<g>
</g>
<g>
</g>
<g>
</g>
<g>
</g>
<g>
</g>
<g>
</g>
<g>
</g>
<g>
</g>
<g>
</g>
</svg>
