<?xml version="1.0" encoding="iso-8859-1"?>
<!-- Generator: Adobe Illustrator 19.0.0, SVG Export Plug-In . SVG Version: 6.00 Build 0)  -->
<svg xmlns="http://www.w3.org/2000/svg" xmlns:xlink="http://www.w3.org/1999/xlink" version="1.1" id="Capa_1" x="0px" y="0px" viewBox="0 0 512 512" style="enable-background:new 0 0 512 512;" xml:space="preserve">
<rect y="85.334" style="fill:#F0F0F0;" width="512" height="341.337"/>
<g>
	<path style="fill:#0052B4;" d="M461.664,283.341c-4.016,0-13.378-5.315-20.212-9.197c-10.958-6.223-21.308-12.1-31.204-12.1   s-20.246,5.877-31.204,12.1c-6.835,3.881-16.196,9.197-20.212,9.197s-13.378-5.315-20.211-9.197   c-10.958-6.223-21.308-12.1-31.204-12.1c-9.896,0-20.246,5.877-31.204,12.1c-6.835,3.881-16.196,9.197-20.212,9.197   c-4.016,0-13.378-5.315-20.212-9.197c-10.958-6.223-21.308-12.1-31.204-12.1c-9.896,0-20.246,5.877-31.204,12.1   c-6.834,3.881-16.195,9.197-20.211,9.197c-4.016,0-13.378-5.315-20.212-9.197c-10.958-6.223-21.308-12.1-31.204-12.1   s-20.246,5.877-31.204,12.1c-6.835,3.881-16.196,9.197-20.212,9.197s-13.378-5.315-20.211-9.197   C19.565,268.147,9.57,262.487,0,262.083v22.332c4.437,0.746,12.847,5.516,19.131,9.086c10.958,6.223,21.308,12.1,31.204,12.1   s20.246-5.877,31.204-12.1c6.835-3.881,16.196-9.197,20.212-9.197s13.378,5.315,20.212,9.197c10.958,6.223,21.308,12.1,31.204,12.1   s20.246-5.877,31.204-12.1c6.834-3.881,16.195-9.197,20.211-9.197c4.016,0,13.378,5.315,20.212,9.197   c10.958,6.223,21.308,12.1,31.204,12.1s20.246-5.877,31.204-12.1c6.835-3.881,16.196-9.197,20.212-9.197   c4.016,0,13.378,5.315,20.211,9.197c10.958,6.223,21.308,12.1,31.204,12.1s20.246-5.877,31.204-12.1   c6.835-3.881,16.196-9.197,20.212-9.197s13.378,5.315,20.212,9.197c10.958,6.223,21.308,12.1,31.204,12.1s20.246-5.877,31.204-12.1   c6.284-3.57,14.694-8.34,19.131-9.086v-22.332c-9.57,0.404-19.565,6.064-30.125,12.061   C475.041,278.025,465.681,283.341,461.664,283.341z"/>
	<path style="fill:#0052B4;" d="M0,117.459c4.437,0.746,12.847,5.516,19.131,9.086c10.958,6.223,21.308,12.1,31.204,12.1   s20.246-5.877,31.204-12.1c6.835-3.881,16.196-9.197,20.212-9.197s13.378,5.315,20.212,9.197c10.958,6.223,21.308,12.1,31.204,12.1   s20.246-5.877,31.204-12.1c6.834-3.881,16.195-9.197,20.211-9.197c4.016,0,13.378,5.315,20.212,9.197   c10.958,6.223,21.308,12.1,31.204,12.1s20.246-5.877,31.204-12.1c6.835-3.881,16.196-9.197,20.212-9.197   c4.016,0,13.378,5.315,20.211,9.197c10.958,6.223,21.308,12.1,31.204,12.1s20.246-5.877,31.204-12.1   c6.835-3.881,16.196-9.197,20.212-9.197s13.378,5.315,20.212,9.197c10.958,6.223,21.308,12.1,31.204,12.1s20.246-5.877,31.204-12.1   c6.284-3.57,14.694-8.34,19.131-9.086V95.126c-9.57,0.404-19.565,6.064-30.125,12.061c-6.834,3.881-16.195,9.197-20.211,9.197   s-13.378-5.315-20.212-9.197c-10.958-6.223-21.308-12.1-31.204-12.1s-20.246,5.877-31.204,12.1   c-6.835,3.881-16.196,9.197-20.212,9.197c-4.016,0-13.378-5.315-20.211-9.197c-10.958-6.223-21.308-12.1-31.204-12.1   s-20.246,5.877-31.204,12.1c-6.835,3.881-16.196,9.197-20.212,9.197c-4.016,0-13.378-5.315-20.212-9.197   c-10.958-6.223-21.308-12.1-31.204-12.1s-20.246,5.877-31.204,12.1c-6.834,3.881-16.195,9.197-20.211,9.197   c-4.016,0-13.378-5.315-20.212-9.197c-10.958-6.223-21.308-12.1-31.204-12.1s-20.246,5.877-31.204,12.1   c-6.835,3.881-16.196,9.197-20.212,9.197s-13.378-5.315-20.211-9.197C19.565,101.19,9.57,95.53,0,95.126V117.459z"/>
	<path style="fill:#0052B4;" d="M461.664,172.036c-4.016,0-13.378-5.315-20.212-9.197c-10.958-6.223-21.308-12.1-31.204-12.1   s-20.246,5.877-31.204,12.1c-6.835,3.881-16.196,9.197-20.212,9.197s-13.378-5.315-20.211-9.197   c-10.958-6.223-21.308-12.1-31.204-12.1c-9.896,0-20.246,5.877-31.204,12.1c-6.835,3.881-16.196,9.197-20.212,9.197   c-4.016,0-13.378-5.315-20.212-9.197c-10.958-6.223-21.308-12.1-31.204-12.1c-9.896,0-20.246,5.877-31.204,12.1   c-6.834,3.881-16.195,9.197-20.211,9.197c-4.016,0-13.378-5.315-20.212-9.197c-10.958-6.223-21.308-12.1-31.204-12.1   s-20.246,5.877-31.204,12.1c-6.835,3.881-16.196,9.197-20.212,9.197s-13.378-5.315-20.211-9.197   C19.565,156.842,9.57,151.182,0,150.778v22.332c4.437,0.746,12.847,5.516,19.131,9.086c10.958,6.223,21.308,12.1,31.204,12.1   s20.246-5.877,31.204-12.1c6.835-3.881,16.196-9.197,20.212-9.197s13.378,5.315,20.212,9.197c10.958,6.223,21.308,12.1,31.204,12.1   s20.246-5.877,31.204-12.1c6.834-3.881,16.195-9.197,20.211-9.197c4.016,0,13.378,5.315,20.212,9.197   c10.958,6.223,21.308,12.1,31.204,12.1s20.246-5.877,31.204-12.1c6.835-3.881,16.196-9.197,20.212-9.197   c4.016,0,13.378,5.315,20.211,9.197c10.958,6.223,21.308,12.1,31.204,12.1s20.246-5.877,31.204-12.1   c6.835-3.881,16.196-9.197,20.212-9.197s13.378,5.315,20.212,9.197c10.958,6.223,21.308,12.1,31.204,12.1s20.246-5.877,31.204-12.1   c6.284-3.57,14.694-8.34,19.131-9.086v-22.332c-9.57,0.404-19.565,6.064-30.125,12.061   C475.041,166.721,465.681,172.036,461.664,172.036z"/>
	<path style="fill:#0052B4;" d="M512,206.431c-9.57,0.404-19.565,6.064-30.125,12.061c-6.834,3.881-16.195,9.197-20.211,9.197   s-13.378-5.315-20.212-9.197c-10.958-6.223-21.308-12.1-31.204-12.1s-20.246,5.877-31.204,12.1   c-6.835,3.881-16.196,9.197-20.212,9.197c-4.016,0-13.378-5.315-20.211-9.197c-10.958-6.223-21.308-12.1-31.204-12.1   s-20.246,5.877-31.204,12.1c-6.835,3.881-16.196,9.197-20.212,9.197c-4.016,0-13.378-5.315-20.212-9.197   c-10.958-6.223-21.308-12.1-31.204-12.1s-20.246,5.877-31.204,12.1c-6.834,3.881-16.195,9.197-20.211,9.197   s-13.378-5.315-20.212-9.197c-10.958-6.223-21.308-12.1-31.204-12.1s-20.246,5.877-31.204,12.1   c-6.835,3.881-16.196,9.197-20.212,9.197s-13.378-5.315-20.211-9.197C19.565,212.494,9.57,206.835,0,206.431v22.332   c4.437,0.746,12.847,5.516,19.131,9.086c10.958,6.223,21.308,12.1,31.204,12.1s20.246-5.877,31.204-12.1   c6.835-3.881,16.196-9.197,20.212-9.197s13.378,5.315,20.212,9.197c10.958,6.223,21.308,12.1,31.204,12.1s20.246-5.877,31.204-12.1   c6.834-3.881,16.195-9.197,20.211-9.197c4.016,0,13.378,5.315,20.212,9.197c10.958,6.223,21.308,12.1,31.204,12.1   s20.246-5.877,31.204-12.1c6.835-3.881,16.196-9.197,20.212-9.197c4.016,0,13.378,5.315,20.211,9.197   c10.958,6.223,21.308,12.1,31.204,12.1s20.246-5.877,31.204-12.1c6.835-3.881,16.196-9.197,20.212-9.197s13.378,5.315,20.212,9.197   c10.958,6.223,21.308,12.1,31.204,12.1s20.246-5.877,31.204-12.1c6.284-3.57,14.694-8.34,19.131-9.086v-22.332H512z"/>
	<path style="fill:#0052B4;" d="M461.664,338.993c-4.016,0-13.378-5.315-20.212-9.197c-10.958-6.223-21.308-12.1-31.204-12.1   s-20.246,5.877-31.204,12.1c-6.835,3.881-16.196,9.197-20.212,9.197s-13.378-5.315-20.211-9.197   c-10.958-6.223-21.308-12.1-31.204-12.1c-9.896,0-20.246,5.877-31.204,12.1c-6.835,3.881-16.196,9.197-20.212,9.197   c-4.016,0-13.378-5.315-20.212-9.197c-10.958-6.223-21.308-12.1-31.204-12.1c-9.896,0-20.246,5.877-31.204,12.1   c-6.834,3.881-16.195,9.197-20.211,9.197c-4.016,0-13.378-5.315-20.212-9.197c-10.958-6.223-21.308-12.1-31.204-12.1   s-20.246,5.877-31.204,12.1c-6.835,3.881-16.196,9.197-20.212,9.197s-13.378-5.315-20.211-9.197   C19.565,323.799,9.57,318.139,0,317.735v22.332c4.437,0.746,12.847,5.516,19.131,9.086c10.958,6.223,21.308,12.1,31.204,12.1   s20.246-5.877,31.204-12.1c6.835-3.881,16.196-9.197,20.212-9.197s13.378,5.315,20.212,9.197c10.958,6.223,21.308,12.1,31.204,12.1   s20.246-5.877,31.204-12.1c6.834-3.881,16.195-9.197,20.211-9.197c4.016,0,13.378,5.315,20.212,9.197   c10.958,6.223,21.308,12.1,31.204,12.1s20.246-5.877,31.204-12.1c6.835-3.881,16.196-9.197,20.212-9.197   c4.016,0,13.378,5.315,20.211,9.197c10.958,6.223,21.308,12.1,31.204,12.1s20.246-5.877,31.204-12.1   c6.835-3.881,16.196-9.197,20.212-9.197s13.378,5.315,20.212,9.197c10.958,6.223,21.308,12.1,31.204,12.1s20.246-5.877,31.204-12.1   c6.284-3.57,14.694-8.34,19.131-9.086v-22.332c-9.57,0.404-19.565,6.064-30.125,12.061   C475.041,333.677,465.681,338.993,461.664,338.993z"/>
	<path style="fill:#0052B4;" d="M512,373.387c-9.57,0.404-19.565,6.064-30.125,12.061c-6.834,3.881-16.195,9.197-20.211,9.197   s-13.378-5.315-20.212-9.197c-10.958-6.223-21.308-12.1-31.204-12.1s-20.246,5.877-31.204,12.1   c-6.835,3.881-16.196,9.197-20.212,9.197c-4.016,0-13.378-5.315-20.211-9.197c-10.958-6.223-21.308-12.1-31.204-12.1   s-20.246,5.877-31.204,12.1c-6.835,3.881-16.196,9.197-20.212,9.197c-4.016,0-13.378-5.315-20.212-9.197   c-10.958-6.223-21.308-12.1-31.204-12.1s-20.246,5.877-31.204,12.1c-6.834,3.881-16.195,9.197-20.211,9.197   s-13.378-5.315-20.212-9.197c-10.958-6.223-21.308-12.1-31.204-12.1s-20.246,5.877-31.204,12.1   c-6.835,3.881-16.196,9.197-20.212,9.197s-13.378-5.315-20.211-9.197C19.565,379.451,9.57,373.791,0,373.387v22.332   c4.437,0.746,12.847,5.516,19.131,9.086c10.958,6.223,21.308,12.1,31.204,12.1s20.246-5.877,31.204-12.1   c6.835-3.881,16.196-9.197,20.212-9.197s13.378,5.315,20.212,9.197c10.958,6.223,21.308,12.1,31.204,12.1s20.246-5.877,31.204-12.1   c6.834-3.881,16.195-9.197,20.211-9.197c4.016,0,13.378,5.315,20.212,9.197c10.958,6.223,21.308,12.1,31.204,12.1   s20.246-5.877,31.204-12.1c6.835-3.881,16.196-9.197,20.212-9.197c4.016,0,13.378,5.315,20.211,9.197   c10.958,6.223,21.308,12.1,31.204,12.1s20.246-5.877,31.204-12.1c6.835-3.881,16.196-9.197,20.212-9.197s13.378,5.315,20.212,9.197   c10.958,6.223,21.308,12.1,31.204,12.1s20.246-5.877,31.204-12.1c6.284-3.57,14.694-8.34,19.131-9.086v-22.332H512z"/>
</g>
<g>
	<path style="fill:#F0F0F0;" d="M256,85.329c-0.01,0-0.019,0-0.029,0H256L256,85.329z"/>
	<path style="fill:#F0F0F0;" d="M255.544,255.997H256c0-0.154,0-0.303,0-0.456C255.848,255.692,255.696,255.844,255.544,255.997z"/>
</g>
<polygon style="fill:#496E2D;" points="278.261,255.997 278.261,255.997 278.261,255.996 "/>
<polygon style="fill:#6DA544;" points="350.609,168.809 417.391,168.809 384,202.2 "/>
<g>
	<rect x="376.576" y="194.779" style="fill:#A2001D;" width="14.84" height="40.812"/>
	<rect x="376.576" y="302.377" style="fill:#A2001D;" width="14.84" height="40.812"/>
</g>
<path style="fill:#FFDA44;" d="M428.522,280.113c0-12.295-9.966-22.261-22.261-22.261c-5.703,0-10.901,2.146-14.84,5.672v-13.093  h7.421v-14.84h-7.421v-7.421h-14.84v7.421h-7.421v14.84h7.421v13.093c-3.939-3.526-9.138-5.672-14.84-5.672  c-12.295,0-22.261,9.966-22.261,22.261c0,6.591,2.867,12.512,7.421,16.589v13.093h74.203v-13.094  C425.655,292.625,428.522,286.704,428.522,280.113z"/>
<path style="fill:#D80027;" d="M406.261,272.692c-2.341,0-3.98,1.027-4.943,1.889l-9.898,8.861h-14.84l-9.898-8.861  c-0.962-0.861-2.601-1.889-4.942-1.889c-4.092,0-7.421,3.329-7.421,7.421c0,2.882,1.554,4.703,2.48,5.533l4.941,4.424v4.883h44.522  v-4.884l4.941-4.424c0.926-0.829,2.48-2.651,2.48-5.533C413.681,276.021,410.352,272.692,406.261,272.692z"/>
<rect y="85.334" style="fill:#F0F0F0;" width="256" height="170.663"/>
<g>
	<polygon style="fill:#D80027;" points="144,85.329 112,85.329 112,154.663 0,154.663 0,186.663 112,186.663 112,255.997    144,255.997 144,186.663 256,186.663 256,154.663 144,154.663  "/>
	<polygon style="fill:#D80027;" points="0,85.329 0,100.411 57.377,138.663 80,138.663  "/>
</g>
<g>
	<polygon style="fill:#2E52B2;" points="0,107.951 0,138.663 46.069,138.663  "/>
	<polygon style="fill:#2E52B2;" points="96,85.331 96,134.244 22.628,85.331  "/>
</g>
<polygon style="fill:#D80027;" points="256,85.329 256,100.411 198.623,138.663 176,138.663 "/>
<g>
	<polygon style="fill:#2E52B2;" points="256,107.951 256,138.663 209.931,138.663  "/>
	<polygon style="fill:#2E52B2;" points="160,85.331 160,134.244 233.372,85.331  "/>
</g>
<polygon style="fill:#D80027;" points="0,85.329 0,100.411 57.377,138.663 80,138.663 "/>
<g>
	<polygon style="fill:#2E52B2;" points="0,107.951 0,138.663 46.069,138.663  "/>
	<polygon style="fill:#2E52B2;" points="96,85.331 96,134.244 22.628,85.331  "/>
</g>
<polygon style="fill:#D80027;" points="256,85.329 256,100.411 198.623,138.663 176,138.663 "/>
<g>
	<polygon style="fill:#2E52B2;" points="256,107.951 256,138.663 209.931,138.663  "/>
	<polygon style="fill:#2E52B2;" points="160,85.331 160,134.244 233.372,85.331  "/>
</g>
<polygon style="fill:#D80027;" points="0,255.997 0,240.915 57.377,202.663 80,202.663 "/>
<g>
	<polygon style="fill:#2E52B2;" points="0,233.376 0,202.663 46.069,202.663  "/>
	<polygon style="fill:#2E52B2;" points="96,255.994 96,207.082 22.628,255.994  "/>
</g>
<polygon style="fill:#D80027;" points="256,255.997 256,240.915 198.623,202.663 176,202.663 "/>
<g>
	<polygon style="fill:#2E52B2;" points="256,233.376 256,202.663 209.931,202.663  "/>
	<polygon style="fill:#2E52B2;" points="160,255.994 160,207.082 233.372,255.994  "/>
</g>
<g>
</g>
<g>
</g>
<g>
</g>
<g>
</g>
<g>
</g>
<g>
</g>
<g>
</g>
<g>
</g>
<g>
</g>
<g>
</g>
<g>
</g>
<g>
</g>
<g>
</g>
<g>
</g>
<g>
</g>
</svg>
