<?xml version="1.0" encoding="iso-8859-1"?>
<!-- Generator: Adobe Illustrator 19.0.0, SVG Export Plug-In . SVG Version: 6.00 Build 0)  -->
<svg xmlns="http://www.w3.org/2000/svg" xmlns:xlink="http://www.w3.org/1999/xlink" version="1.1" id="Capa_1" x="0px" y="0px" viewBox="0 0 512 512" style="enable-background:new 0 0 512 512;" xml:space="preserve">
<rect y="85.333" style="fill:#F0F0F0;" width="512" height="341.337"/>
<polygon points="85.334,85.33 256,255.996 256,85.33 "/>
<polygon points="0,426.662 85.334,426.662 256,255.996 0,255.996 "/>
<polygon points="426.666,426.662 256,255.996 256,426.662 "/>
<polygon points="426.666,85.33 256,255.996 512,255.996 512,85.33 "/>
<polygon style="fill:#FFDA44;" points="196.638,204.054 256,211.475 315.362,204.054 315.362,168.436 291.617,180.309 256,144.692   220.383,180.309 196.638,168.436 "/>
<path style="fill:#D80027;" d="M256,345.04c-32.732,0-59.362-26.63-59.362-59.362v-59.36l22.261-22.262h74.203l22.261,22.262v59.36  C315.362,318.41,288.732,345.04,256,345.04z"/>
<path style="fill:#F0F0F0;" d="M256,322.779c-20.458,0-37.101-16.643-37.101-37.101v-59.361h74.203v59.361  C293.101,306.135,276.458,322.779,256,322.779z"/>
<g>
	<rect x="196.641" y="204.05" style="fill:#FFDA44;" width="22.261" height="22.261"/>
	<rect x="293.098" y="204.05" style="fill:#FFDA44;" width="22.261" height="22.261"/>
	<rect x="293.098" y="252.29" style="fill:#FFDA44;" width="22.261" height="22.261"/>
	<rect x="196.641" y="252.29" style="fill:#FFDA44;" width="22.261" height="22.261"/>
	<path style="fill:#FFDA44;" d="M256,322.779c-3.877,0-7.615-0.6-11.13-1.709v22.908c3.608,0.688,7.325,1.062,11.13,1.062   s7.522-0.374,11.13-1.062V321.07C263.615,322.179,259.877,322.779,256,322.779z"/>
	<path style="fill:#FFDA44;" d="M219.395,291.7l-17.766,17.766c3.081,7.013,7.474,13.319,12.876,18.606l15.733-15.733   C224.624,306.913,220.713,299.74,219.395,291.7z"/>
	<path style="fill:#FFDA44;" d="M310.371,309.467L292.605,291.7c-1.319,8.038-5.229,15.212-10.843,20.638l15.733,15.733   C302.896,322.785,307.29,316.48,310.371,309.467z"/>
</g>
<g>
	<path style="fill:#0052B4;" d="M248.579,238.683v12.367c0,4.098,3.322,7.421,7.421,7.421c4.098,0,7.421-3.322,7.421-7.421v-12.367   H248.579z"/>
	<path style="fill:#0052B4;" d="M248.579,288.151v12.367c0,4.098,3.322,7.421,7.421,7.421c4.098,0,7.421-3.322,7.421-7.421v-12.367   H248.579z"/>
	<path style="fill:#0052B4;" d="M270.84,263.417v12.368c0,4.097,3.322,7.421,7.421,7.421s7.421-3.324,7.421-7.421v-12.368   L270.84,263.417L270.84,263.417z"/>
	<path style="fill:#0052B4;" d="M248.579,263.417v12.368c0,4.097,3.322,7.421,7.421,7.421c4.098,0,7.421-3.324,7.421-7.421v-12.368   L248.579,263.417L248.579,263.417z"/>
	<path style="fill:#0052B4;" d="M226.318,263.417v12.368c0,4.097,3.322,7.421,7.421,7.421s7.421-3.324,7.421-7.421v-12.368   L226.318,263.417L226.318,263.417z"/>
</g>
<g>
</g>
<g>
</g>
<g>
</g>
<g>
</g>
<g>
</g>
<g>
</g>
<g>
</g>
<g>
</g>
<g>
</g>
<g>
</g>
<g>
</g>
<g>
</g>
<g>
</g>
<g>
</g>
<g>
</g>
</svg>
