<?xml version="1.0" encoding="iso-8859-1"?>
<!-- Generator: Adobe Illustrator 19.0.0, SVG Export Plug-In . SVG Version: 6.00 Build 0)  -->
<svg xmlns="http://www.w3.org/2000/svg" xmlns:xlink="http://www.w3.org/1999/xlink" version="1.1" id="Capa_1" x="0px" y="0px" viewBox="0 0 512 512" style="enable-background:new 0 0 512 512;" xml:space="preserve">
<rect y="85.331" style="fill:#F0F0F0;" width="512" height="341.337"/>
<path d="M315.424,229.882c0-36.096-29.261-65.357-65.357-65.357c-26.635,0-49.535,15.94-59.715,38.796l-8.062,29.223l7.421,7.421  l-14.84,29.682l14.84,7.421l-7.421,7.421v7.421l7.421,7.421v14.84l7.421,7.421l22.261-7.421c0,0,0,7.421,7.421,14.84  c7.421,7.42,14.841,22.262,14.841,22.262s22.261,7.421,37.101-14.84s29.682-29.682,29.682-29.682l-14.305-28.61  C307.213,266.19,315.424,248.998,315.424,229.882z"/>
<path style="fill:#ACABB1;" d="M320.751,254.876c30.152-5.087,35.176-64.13,35.176-64.13h-41.553  c21.518,51.942-1.004,55.436-1.004,55.436c-3.052-2.27-112.249-54-115.712-55.316c-0.834,1.116-3.903,4.047-7.635,13.174  c-3.732,9.127-4.649,17.338-4.649,17.338c1.749,1.139,117.718,41.633,120.783,41.971c6.083,3.978,13.569,15.871,9.385,51.137  l39.996-11.273C355.536,303.213,341.963,267.104,320.751,254.876z"/>
<g>
</g>
<g>
</g>
<g>
</g>
<g>
</g>
<g>
</g>
<g>
</g>
<g>
</g>
<g>
</g>
<g>
</g>
<g>
</g>
<g>
</g>
<g>
</g>
<g>
</g>
<g>
</g>
<g>
</g>
</svg>
