<?xml version="1.0" encoding="iso-8859-1"?>
<!-- Generator: Adobe Illustrator 19.0.0, SVG Export Plug-In . SVG Version: 6.00 Build 0)  -->
<svg xmlns="http://www.w3.org/2000/svg" xmlns:xlink="http://www.w3.org/1999/xlink" version="1.1" id="Capa_1" x="0px" y="0px" viewBox="0 0 512 512" style="enable-background:new 0 0 512 512;" xml:space="preserve">
<rect y="85.338" style="fill:#F0F0F0;" width="512" height="341.326"/>
<rect y="128.001" style="fill:#D80027;" width="512" height="42.663"/>
<rect y="170.664" style="fill:#0052B4;" width="512" height="42.663"/>
<rect y="256.001" style="fill:#D80027;" width="512" height="42.663"/>
<rect y="298.664" style="fill:#0052B4;" width="512" height="42.663"/>
<rect y="384.001" style="fill:#D80027;" width="512" height="42.663"/>
<rect y="85.338" style="fill:#F0F0F0;" width="256" height="170.663"/>
<polygon style="fill:#D80027;" points="144,85.336 112,85.336 112,154.67 0,154.67 0,186.67 112,186.67 112,256.003 144,256.003   144,186.67 256,186.67 256,154.67 144,154.67 "/>
<g>
	<polygon style="fill:#0052B4;" points="196.892,200.351 256,233.188 256,200.351  "/>
	<polygon style="fill:#0052B4;" points="155.826,200.351 256,256.003 256,240.266 184.153,200.351  "/>
	<polygon style="fill:#0052B4;" points="229.317,256.003 155.826,215.171 155.826,256.003  "/>
</g>
<polygon style="fill:#F0F0F0;" points="155.826,200.351 256,256.003 256,240.266 184.153,200.351 "/>
<polygon style="fill:#D80027;" points="155.826,200.351 256,256.003 256,240.266 184.153,200.351 "/>
<g>
	<polygon style="fill:#0052B4;" points="45.171,200.35 0,225.445 0,200.35  "/>
	<polygon style="fill:#0052B4;" points="100.174,207.427 100.174,256.002 12.745,256.002  "/>
</g>
<polygon style="fill:#D80027;" points="71.846,200.351 0,240.266 0,256.003 0,256.003 100.174,200.351 "/>
<g>
	<polygon style="fill:#0052B4;" points="59.108,140.988 0,108.151 0,140.988  "/>
	<polygon style="fill:#0052B4;" points="100.174,140.988 0,85.336 0,101.073 71.847,140.988  "/>
	<polygon style="fill:#0052B4;" points="26.683,85.336 100.174,126.169 100.174,85.336  "/>
</g>
<polygon style="fill:#F0F0F0;" points="100.174,140.988 0,85.336 0,101.073 71.847,140.988 "/>
<polygon style="fill:#D80027;" points="100.174,140.988 0,85.336 0,101.073 71.847,140.988 "/>
<g>
	<polygon style="fill:#0052B4;" points="210.829,140.989 256,115.895 256,140.989  "/>
	<polygon style="fill:#0052B4;" points="155.826,133.912 155.826,85.337 243.255,85.337  "/>
</g>
<polygon style="fill:#D80027;" points="184.154,140.988 256,101.074 256,85.336 256,85.336 155.826,140.988 "/>
<g>
</g>
<g>
</g>
<g>
</g>
<g>
</g>
<g>
</g>
<g>
</g>
<g>
</g>
<g>
</g>
<g>
</g>
<g>
</g>
<g>
</g>
<g>
</g>
<g>
</g>
<g>
</g>
<g>
</g>
</svg>
