<?xml version="1.0" encoding="iso-8859-1"?>
<!-- Generator: Adobe Illustrator 19.0.0, SVG Export Plug-In . SVG Version: 6.00 Build 0)  -->
<svg xmlns="http://www.w3.org/2000/svg" xmlns:xlink="http://www.w3.org/1999/xlink" version="1.1" id="Capa_1" x="0px" y="0px" viewBox="0 0 512 512" style="enable-background:new 0 0 512 512;" xml:space="preserve">
<rect y="85.331" style="fill:#FFDA44;" width="512" height="341.326"/>
<g>
	<rect x="330.207" y="85.331" style="fill:#0052B4;" width="181.793" height="341.337"/>
	<rect y="85.331" style="fill:#0052B4;" width="181.793" height="341.337"/>
</g>
<polygon style="fill:#D80027;" points="305.74,271.299 317.217,286.603 317.217,225.386 305.74,240.69 271.304,240.69   271.304,206.256 286.609,194.777 225.391,194.777 240.696,206.256 240.696,240.69 206.261,240.69 194.783,225.386 194.783,286.603   206.261,271.299 240.696,271.299 240.696,305.734 225.391,317.212 286.609,317.212 271.304,305.734 271.304,271.299 "/>
<polygon style="fill:#F0F0F0;" points="301.913,248.342 263.652,248.342 263.652,210.081 248.348,210.081 248.348,248.342   210.087,248.342 210.087,263.647 248.348,263.647 248.348,301.907 263.652,301.907 263.652,263.647 301.913,263.647 "/>
<g>
</g>
<g>
</g>
<g>
</g>
<g>
</g>
<g>
</g>
<g>
</g>
<g>
</g>
<g>
</g>
<g>
</g>
<g>
</g>
<g>
</g>
<g>
</g>
<g>
</g>
<g>
</g>
<g>
</g>
</svg>
