<?xml version="1.0" encoding="iso-8859-1"?>
<!-- Generator: Adobe Illustrator 19.0.0, SVG Export Plug-In . SVG Version: 6.00 Build 0)  -->
<svg xmlns="http://www.w3.org/2000/svg" xmlns:xlink="http://www.w3.org/1999/xlink" version="1.1" id="Capa_1" x="0px" y="0px" viewBox="0 0 512 512" style="enable-background:new 0 0 512 512;" xml:space="preserve">
<rect y="85.331" style="fill:#338AF3;" width="512" height="341.337"/>
<rect x="166.957" y="270.831" style="fill:#818085;" width="178.087" height="22.261"/>
<polygon style="fill:#FFDA44;" points="196.638,204.052 256,211.474 315.362,204.052 315.362,168.435 291.617,180.307 256,144.69   220.383,180.307 196.638,168.435 "/>
<g>
	<polygon style="fill:#F0F0F0;" points="181.797,315.357 159.536,315.357 159.536,274.546 166.957,263.415 159.536,252.285    159.536,226.314 181.797,226.314  "/>
	<polygon style="fill:#F0F0F0;" points="352.464,315.357 330.203,315.357 330.203,226.314 352.464,226.314 352.464,252.284    345.043,263.601 352.464,274.548  "/>
</g>
<rect x="159.533" y="252.288" style="fill:#ACABB1;" width="192.924" height="22.261"/>
<path style="fill:#F0F0F0;" d="M256,345.038c-32.732,0-59.362-26.63-59.362-59.362v-81.623h118.725v81.623  C315.362,318.408,288.732,345.038,256,345.038z"/>
<path style="fill:#0052B4;" d="M256,322.777c-20.458,0-37.101-16.643-37.101-37.101v-59.362h74.203v59.362  C293.101,306.134,276.458,322.777,256,322.777z"/>
<g>
	<rect x="196.641" y="204.049" style="fill:#D80027;" width="22.261" height="22.261"/>
	<rect x="293.098" y="204.049" style="fill:#D80027;" width="22.261" height="22.261"/>
	<rect x="293.098" y="252.288" style="fill:#D80027;" width="22.261" height="22.261"/>
	<rect x="196.641" y="252.288" style="fill:#D80027;" width="22.261" height="22.261"/>
	<rect x="244.87" y="204.049" style="fill:#D80027;" width="22.261" height="22.261"/>
	<path style="fill:#D80027;" d="M256,322.777c-3.877,0-7.615-0.6-11.13-1.709v22.908c3.608,0.688,7.325,1.062,11.13,1.062   s7.522-0.374,11.13-1.062v-22.908C263.615,322.177,259.877,322.777,256,322.777z"/>
	<path style="fill:#D80027;" d="M219.395,291.699l-17.766,17.766c3.081,7.013,7.474,13.319,12.876,18.606l15.733-15.733   C224.624,306.912,220.713,299.738,219.395,291.699z"/>
	<path style="fill:#D80027;" d="M310.371,309.465l-17.766-17.766c-1.319,8.038-5.229,15.212-10.843,20.638l15.733,15.733   C302.896,322.784,307.29,316.478,310.371,309.465z"/>
</g>
<g>
</g>
<g>
</g>
<g>
</g>
<g>
</g>
<g>
</g>
<g>
</g>
<g>
</g>
<g>
</g>
<g>
</g>
<g>
</g>
<g>
</g>
<g>
</g>
<g>
</g>
<g>
</g>
<g>
</g>
</svg>
