<?xml version="1.0" encoding="iso-8859-1"?>
<!-- Generator: Adobe Illustrator 19.0.0, SVG Export Plug-In . SVG Version: 6.00 Build 0)  -->
<svg xmlns="http://www.w3.org/2000/svg" xmlns:xlink="http://www.w3.org/1999/xlink" version="1.1" id="Capa_1" x="0px" y="0px" viewBox="0 0 512 512" style="enable-background:new 0 0 512 512;" xml:space="preserve">
<rect y="85.331" style="fill:#FCFCFC;" width="512" height="341.337"/>
<path style="fill:#D80027;" d="M307.942,226.313v14.84h20.368c-8.5,11.814-19.822,21.457-32.977,27.952  c-3.375-3.506-8.112-5.691-13.362-5.691c-8.85,0-16.248,6.2-18.1,14.492c-2.593,0.227-5.218,0.348-7.871,0.348  c-2.654,0-5.278-0.121-7.871-0.348c-1.852-8.292-9.251-14.492-18.1-14.492c-5.25,0-9.987,2.185-13.362,5.69  c-13.154-6.493-24.476-16.138-32.976-27.951h20.368v-14.84h-51.942c0,57.373,46.511,103.884,103.884,103.884  c57.374,0,103.884-46.511,103.884-103.884L307.942,226.313L307.942,226.313z"/>
<g>
</g>
<g>
</g>
<g>
</g>
<g>
</g>
<g>
</g>
<g>
</g>
<g>
</g>
<g>
</g>
<g>
</g>
<g>
</g>
<g>
</g>
<g>
</g>
<g>
</g>
<g>
</g>
<g>
</g>
</svg>
