<?xml version="1.0" encoding="iso-8859-1"?>
<!-- Generator: Adobe Illustrator 19.0.0, SVG Export Plug-In . SVG Version: 6.00 Build 0)  -->
<svg xmlns="http://www.w3.org/2000/svg" xmlns:xlink="http://www.w3.org/1999/xlink" version="1.1" id="Capa_1" x="0px" y="0px" viewBox="0 0 512 512" style="enable-background:new 0 0 512 512;" xml:space="preserve">
<rect y="85.337" style="fill:#F0F0F0;" width="512" height="341.326"/>
<rect y="85.337" style="fill:#496E2D;" width="512" height="113.775"/>
<rect y="312.888" style="fill:#D80027;" width="512" height="113.775"/>
<polygon points="256,218.899 265.208,247.24 295.011,247.24 270.9,264.759 280.111,293.101 256,275.585 231.889,293.101   241.1,264.759 216.989,247.24 246.792,247.24 "/>
<g>
	<path style="fill:#F0F0F0;" d="M306.706,118.725v34.628c0,5.456-4.439,9.894-9.894,9.894v14.84   c13.639,0,24.734-11.096,24.734-24.735v-34.628h-14.84V118.725z"/>
	<path style="fill:#F0F0F0;" d="M200.348,153.352c0,5.456-4.439,9.894-9.894,9.894v14.841c13.639,0,24.734-11.096,24.734-24.735   v-34.628h-14.84V153.352z"/>
	<rect x="284.449" y="118.728" style="fill:#F0F0F0;" width="14.84" height="34.627"/>
	<path style="fill:#F0F0F0;" d="M262.184,138.512c0,1.363-1.11,2.474-2.473,2.474s-2.473-1.11-2.473-2.474v-19.787h-14.84v19.787   c0,1.363-1.11,2.474-2.473,2.474c-1.363,0-2.473-1.11-2.473-2.474v-19.787h-14.842v19.787c0,9.548,7.767,17.314,17.314,17.314   c3.676,0,7.087-1.155,9.894-3.118c2.807,1.962,6.217,3.118,9.894,3.118c0.74,0,1.468-0.052,2.185-0.144   c-1.052,4.333-4.953,7.564-9.604,7.564v14.84c13.639,0,24.734-11.096,24.734-24.735v-14.84v-19.787h-14.84v19.787H262.184z"/>
	<rect x="222.609" y="163.25" style="fill:#F0F0F0;" width="22.261" height="14.84"/>
</g>
<g>
</g>
<g>
</g>
<g>
</g>
<g>
</g>
<g>
</g>
<g>
</g>
<g>
</g>
<g>
</g>
<g>
</g>
<g>
</g>
<g>
</g>
<g>
</g>
<g>
</g>
<g>
</g>
<g>
</g>
</svg>
