<?xml version="1.0" encoding="iso-8859-1"?>
<!-- Generator: Adobe Illustrator 19.0.0, SVG Export Plug-In . SVG Version: 6.00 Build 0)  -->
<svg xmlns="http://www.w3.org/2000/svg" xmlns:xlink="http://www.w3.org/1999/xlink" version="1.1" id="Capa_1" x="0px" y="0px" viewBox="0 0 512 512" style="enable-background:new 0 0 512 512;" xml:space="preserve">
<rect y="85.331" style="fill:#F0F0F0;" width="512" height="341.337"/>
<g>
	<path style="fill:#ACABB1;" d="M390.061,222.603h-56.147c0-10.244-8.306-18.551-18.551-18.551l-14.84,29.682   c0,0,15.831,44.522,15.336,44.522h18.551c10.246,0,18.551-8.306,18.551-18.551c10.246,0,18.551-8.306,18.551-18.551h-0.618   C381.136,241.154,390.061,232.849,390.061,222.603z"/>
	<path style="fill:#ACABB1;" d="M121.939,222.603h56.147c0-10.244,8.306-18.551,18.551-18.551l14.84,29.682   c0,0-15.831,44.522-15.336,44.522h-18.551c-10.246,0-18.551-8.306-18.551-18.551c-10.246,0-18.551-8.306-18.551-18.551h0.618   C130.864,241.154,121.939,232.849,121.939,222.603z"/>
</g>
<polygon style="fill:#FFDA44;" points="315.362,322.777 315.362,330.198 196.638,330.198 196.638,322.777 166.957,322.777   166.957,352.459 196.638,352.459 196.638,359.878 315.362,359.878 315.362,352.459 345.043,352.459 345.043,322.777 "/>
<path style="fill:#0052B4;" d="M196.638,204.052v74.202c0,45.44,59.362,59.363,59.362,59.363s59.362-13.923,59.362-59.363v-74.202  L256,196.632L196.638,204.052z"/>
<rect x="196.641" y="233.734" style="fill:#D80027;" width="118.728" height="44.522"/>
<polygon style="fill:#FFDA44;" points="285.682,166.951 285.682,178.081 278.261,181.791 270.84,174.372 270.84,152.111   241.16,152.111 241.16,174.372 233.739,181.791 226.318,178.081 226.318,166.951 196.638,166.951 196.638,204.052 315.362,204.052   315.362,166.951 "/>
<g>
</g>
<g>
</g>
<g>
</g>
<g>
</g>
<g>
</g>
<g>
</g>
<g>
</g>
<g>
</g>
<g>
</g>
<g>
</g>
<g>
</g>
<g>
</g>
<g>
</g>
<g>
</g>
<g>
</g>
</svg>
