<?xml version="1.0" encoding="UTF-8"?>
<svg width="136px" height="38px" viewBox="0 0 136 38" version="1.1" xmlns="http://www.w3.org/2000/svg" xmlns:xlink="http://www.w3.org/1999/xlink">
    <title>arbify_logo_outline</title>
    <g id="Page-1" stroke="none" stroke-width="1" fill="none" fill-rule="evenodd">
        <g id="ms-icon-144x144" transform="translate(-4.000000, -56.000000)">
            <g id="arbify_logo_outline" transform="translate(0.000000, 51.000000)">
                <g id="arbify_logo">
                    <path d="M9.30361446,29.5496 C10.1719518,29.5496 10.8645542,29.28128 11.3814217,28.74464 C11.8982892,28.208 12.1567229,27.50624 12.1567229,26.63936 C12.1567229,25.77248 11.8982892,25.07588 11.3814217,24.54956 C10.8645542,24.02324 10.1719518,23.76008 9.30361446,23.76008 C8.43527711,23.76008 7.7426747,24.02324 7.22580723,24.54956 C6.70893976,25.07588 6.45050602,25.77248 6.45050602,26.63936 C6.45050602,27.50624 6.70893976,28.208 7.22580723,28.74464 C7.7426747,29.28128 8.43527711,29.5496 9.30361446,29.5496 Z M24.8578795,29.24 L26.2844337,23.32664 L32.9520241,23.32664 L34.3785783,29.24 L37.9139518,29.24 L32.0526747,6.9488 L27.4008675,6.9488 L21.3535181,29.24 L24.8578795,29.24 Z M32.269759,20.60216 L26.9666988,20.60216 L28.9824819,12.24296 C29.0858554,11.8508 29.1737229,11.47412 29.2460843,11.11292 C29.3184458,10.75172 29.3753012,10.42664 29.4166506,10.13768 C29.4786747,9.80744 29.5303614,9.49784 29.5717108,9.20888 L29.5717108,9.20888 L29.7267711,9.20888 C29.7681205,9.49784 29.8094699,9.80744 29.8508193,10.13768 C29.8921687,10.42664 29.9438554,10.75172 30.0058795,11.11292 C30.0679036,11.47412 30.1506024,11.8508 30.2539759,12.24296 L30.2539759,12.24296 L32.269759,20.60216 Z M47.2347952,29.24 L47.2347952,18.62072 C47.2347952,17.44424 47.555253,16.51544 48.1961687,15.83432 C48.8370843,15.1532 49.7054217,14.81264 50.8011807,14.81264 C51.9176145,14.81264 52.7962892,15.14804 53.4372048,15.81884 C54.0781205,16.48964 54.3985783,17.4236 54.3985783,18.62072 L54.3985783,18.62072 L54.3985783,19.39472 L57.9029398,19.39472 L57.9029398,18.28016 C57.9029398,16.27808 57.3860723,14.7146 56.3523373,13.58972 C55.3186024,12.46484 53.8920482,11.9024 52.0726747,11.9024 C50.8115181,11.9024 49.7622771,12.1862 48.9249518,12.7538 C48.0876265,13.3214 47.555253,14.1212 47.3278313,15.1532 L47.3278313,15.1532 L47.0487229,15.1532 L47.0487229,12.212 L43.8234699,12.212 L43.8234699,29.24 L47.2347952,29.24 Z M71.627494,29.5496 C72.4958313,29.5496 73.2918072,29.3948 74.0154217,29.0852 C74.7390361,28.7756 75.3541084,28.33184 75.8606386,27.75392 C76.3671687,27.176 76.759988,26.46908 77.0390964,25.63316 C77.3182048,24.79724 77.457759,23.86328 77.457759,22.83128 L77.457759,22.83128 L77.457759,18.5588 C77.457759,17.5268 77.3182048,16.60316 77.0390964,15.78788 C76.759988,14.9726 76.3671687,14.276 75.8606386,13.69808 C75.3541084,13.12016 74.7390361,12.6764 74.0154217,12.3668 C73.2918072,12.0572 72.4958313,11.9024 71.627494,11.9024 C70.387012,11.9024 69.3584458,12.1862 68.5417952,12.7538 C67.7251446,13.3214 67.2031084,14.1212 66.9756867,15.1532 L66.9756867,15.1532 L66.7275904,15.1532 C66.7482651,14.78168 66.7792771,14.41016 66.8206265,14.03864 C66.8413012,13.7084 66.8568072,13.35752 66.8671446,12.986 C66.8774819,12.61448 66.8826506,12.28424 66.8826506,11.99528 L66.8826506,11.99528 L66.8826506,6.9488 L63.4713253,6.9488 L63.4713253,29.24 L66.7275904,29.24 L66.7275904,26.2988 L66.9756867,26.2988 C67.2031084,27.3308 67.7251446,28.1306 68.5417952,28.6982 C69.3584458,29.2658 70.387012,29.5496 71.627494,29.5496 Z M70.387012,26.57744 C69.3119277,26.57744 68.4590964,26.23688 67.8285181,25.55576 C67.1979398,24.87464 66.8826506,23.96648 66.8826506,22.83128 L66.8826506,22.83128 L66.8826506,18.62072 C66.8826506,17.46488 67.2031084,16.5464 67.8440241,15.86528 C68.4849398,15.18416 69.3326024,14.8436 70.387012,14.8436 C71.5241205,14.8436 72.4183012,15.179 73.0695542,15.8498 C73.7208072,16.5206 74.0464337,17.44424 74.0464337,18.62072 L74.0464337,18.62072 L74.0464337,22.80032 C74.0464337,23.95616 73.7208072,24.87464 73.0695542,25.55576 C72.4183012,26.23688 71.5241205,26.57744 70.387012,26.57744 Z M91.8025542,9.48752 C92.4641446,9.48752 92.9861807,9.31208 93.3686627,8.9612 C93.7511446,8.61032 93.9423855,8.1356 93.9423855,7.53704 C93.9423855,6.93848 93.7511446,6.4586 93.3686627,6.0974 C92.9861807,5.7362 92.4744819,5.5556 91.8335663,5.5556 L91.8335663,5.5556 L91.0892771,5.5556 C90.4483614,5.5556 89.9366627,5.7362 89.5541807,6.0974 C89.1716988,6.4586 88.9804578,6.93848 88.9804578,7.53704 C88.9804578,8.1356 89.1716988,8.61032 89.5541807,8.9612 C89.9366627,9.31208 90.4483614,9.48752 91.0892771,9.48752 L91.0892771,9.48752 L91.8025542,9.48752 Z M98.5321687,29.24 L98.5321687,26.144 L93.5392289,26.144 L93.5392289,12.212 L84.8558554,12.212 L84.8558554,15.27704 L90.2209398,15.27704 L90.2209398,26.144 L84.0805542,26.144 L84.0805542,29.24 L98.5321687,29.24 Z M111.636482,29.24 L111.636482,17.10368 L118.366096,17.10368 L118.366096,14.00768 L111.636482,14.00768 L111.636482,11.62376 C111.636482,11.08712 111.791542,10.67948 112.101663,10.40084 C112.411783,10.1222 112.845952,9.98288 113.404169,9.98288 L113.404169,9.98288 L118.366096,9.98288 L118.366096,6.9488 L113.373157,6.9488 C111.781205,6.9488 110.525217,7.36676 109.605193,8.20268 C108.685169,9.0386 108.225157,10.16864 108.225157,11.5928 L108.225157,11.5928 L108.225157,14.00768 L103.387277,14.00768 L103.387277,17.10368 L108.225157,17.10368 L108.225157,29.24 L111.636482,29.24 Z M131.098265,34.5032 L139.285446,12.212 L135.688048,12.212 L132.338747,21.59288 C132.194024,22.00568 132.075145,22.41848 131.982108,22.83128 C131.889072,23.24408 131.811542,23.6156 131.749518,23.94584 C131.687494,24.338 131.646145,24.70952 131.62547,25.0604 L131.62547,25.0604 L131.377373,25.0604 C131.336024,24.70952 131.284337,24.338 131.222313,23.94584 C131.160289,23.59496 131.082759,23.21828 130.989723,22.8158 C130.896687,22.41332 130.76747,22.00568 130.602072,21.59288 L130.602072,21.59288 L127.004675,12.212 L123.283229,12.212 L129.857783,28.1564 L127.500867,34.5032 L131.098265,34.5032 Z" id=".Arbify" fill="#000000" fill-rule="nonzero"></path>
                    <line x1="5.1686747" y1="41.28" x2="77.5301205" y2="41.28" id="Line" stroke="#000000" stroke-width="2" stroke-linecap="square"></line>
                </g>
            </g>
        </g>
    </g>
</svg>